<?xml version="1.0" encoding="utf-8"?>
<!-- Generator: Adobe Illustrator 16.0.0, SVG Export Plug-In . SVG Version: 6.00 Build 0)  -->
<!DOCTYPE svg PUBLIC "-//W3C//DTD SVG 1.1//EN" "http://www.w3.org/Graphics/SVG/1.1/DTD/svg11.dtd">
<svg version="1.1" id="Layer_1" xmlns="http://www.w3.org/2000/svg" xmlns:xlink="http://www.w3.org/1999/xlink" x="0px" y="0px"
	 width="119.012px" height="31.62px" viewBox="0 0 119.012 31.62" enable-background="new 0 0 119.012 31.62" xml:space="preserve">
<g>
	<defs>
		<rect id="SVGID_1_" y="0" width="119.012" height="31.62"/>
	</defs>
	<clipPath id="SVGID_2_">
		<use xlink:href="#SVGID_1_"  overflow="visible"/>
	</clipPath>
	<path clip-path="url(#SVGID_2_)" fill="#FFFFFF" d="M4.655,17.685c0,0,1.854,0.49,2.292-0.326C7.976,15.44,5.03,9.316,5.03,9.316
		s3.417,7.928,7.341,11.596c2.15,2.01,4.618,2.13,6.312,1.216c3.46-1.872,8.088-11.176,8.602-12.111
		c0.515-0.935-3.366,8.416-4.721,10.52c-1.357,2.104-2.526,4.535-6.921,4.676C10.389,25.38,4.655,17.685,4.655,17.685"/>
	<path clip-path="url(#SVGID_2_)" fill="#FFFFFF" d="M0,11.654c0-1.022,0.828-1.85,1.85-1.85s1.849,0.828,1.849,1.85
		s-0.827,1.85-1.849,1.85S0,12.676,0,11.654"/>
	<path clip-path="url(#SVGID_2_)" fill="#FFFFFF" d="M12.979,2.537c0,0,1.356-0.468,1.543-0.233
		c0.391,0.488,0.327,0.981-0.749,2.197c-1.075,1.215-4.16,4.441-4.16,4.441s6.325-5.665,8.088-5.096
		c1.45,0.468,0.843,2.525,0.607,3.273c-0.233,0.748-3.085,8.463-13.418,24.5c-0.113,0.177,15.19-18.094,15.85-25.855
		C21.3-0.83,18.075,0.011,17.84,0.06C15.101,0.606,12.979,2.537,12.979,2.537"/>
</g>
<path fill="#FFFFFF" d="M39.756,17.741l-3.418-8.087l-3.416,8.087H39.756z M36.052,7.176h0.573l7.774,17.972h-1.513l-2.635-6.208
	h-7.825l-2.634,6.208h-1.513L36.052,7.176z"/>
<rect x="46.955" y="7.333" fill="#FFFFFF" width="1.33" height="17.815"/>
<g>
	<defs>
		<rect id="SVGID_3_" y="0" width="119.012" height="31.62"/>
	</defs>
	<clipPath id="SVGID_4_">
		<use xlink:href="#SVGID_3_"  overflow="visible"/>
	</clipPath>
	<path clip-path="url(#SVGID_4_)" fill="#FFFFFF" d="M52.146,13.384h1.304v1.878c1.122-1.383,2.452-2.087,4.068-2.087
		c2.662,0,4.174,1.722,4.174,4.799v7.174h-1.305v-6.547c0-2.818-0.965-4.226-2.999-4.226c-1.618,0-2.949,0.835-3.939,2.477v8.296
		h-1.304V13.384z"/>
</g>
<polygon fill="#FFFFFF" points="73.273,13.385 69.361,21.392 65.187,13.385 63.727,13.385 68.656,22.853 64.64,31.07 65.971,31.07 
	74.63,13.385 "/>
<rect x="76.664" y="7.333" fill="#FFFFFF" width="1.332" height="17.815"/>
<g>
	<defs>
		<rect id="SVGID_5_" y="0" width="119.012" height="31.62"/>
	</defs>
	<clipPath id="SVGID_6_">
		<use xlink:href="#SVGID_5_"  overflow="visible"/>
	</clipPath>
	<path clip-path="url(#SVGID_6_)" fill="#FFFFFF" d="M87.594,19.096c-3.549,0.053-5.504,1.409-5.504,3.234
		c0,1.2,0.86,1.956,2.296,1.956c1.017,0,2.034-0.521,3.208-1.512V19.096z M84.02,25.408c-1.955,0-3.26-1.252-3.26-3.024
		c0-2.558,2.347-4.148,6.834-4.33v-1.252c0-1.749-0.783-2.53-2.635-2.53c-1.199,0-2.321,0.496-3.601,1.435v-1.279
		c1.279-0.861,2.479-1.304,3.704-1.304c2.766,0,3.836,1.253,3.836,3.99v6.157c0,0.52,0.13,0.756,0.417,0.756
		c0.365,0,0.704-0.365,1.329-0.912v1.199c-0.755,0.705-1.407,1.07-1.904,1.07c-0.756,0-1.07-0.418-1.12-1.385
		C86.394,24.939,85.323,25.408,84.02,25.408"/>
	<path clip-path="url(#SVGID_6_)" fill="#FFFFFF" d="M92.731,13.384h1.305v1.878c1.069-1.383,2.348-2.087,3.912-2.087
		c1.748,0,2.843,0.704,3.652,2.4c1.278-1.618,2.582-2.4,4.226-2.4c2.557,0,4.017,1.722,4.017,4.799v7.174h-1.33v-6.547
		c0-2.818-0.913-4.226-2.843-4.226c-1.539,0-2.818,0.835-3.73,2.477v8.296h-1.304v-6.547c0-2.818-0.939-4.226-2.87-4.226
		c-1.54,0-2.79,0.835-3.729,2.477v8.296h-1.305V13.384z"/>
	<path clip-path="url(#SVGID_6_)" fill="#FFFFFF" d="M69.92,29.24h0.503c0.567,0,0.834-0.209,0.834-0.669
		c0-0.426-0.272-0.649-0.784-0.649H69.92V29.24z M70.457,27.7c0.722,0,1.091,0.305,1.091,0.886c0,0.533-0.378,0.883-0.974,0.883
		H69.92v1.541h-0.267V27.7H70.457z"/>
</g>
<polygon fill="#FFFFFF" points="75.156,27.7 75.156,29.23 72.957,29.23 72.957,27.7 72.69,27.7 72.69,31.008 72.957,31.008 
	72.957,29.463 75.156,29.463 75.156,31.008 75.422,31.008 75.422,27.7 "/>
<path fill="#FFFFFF" d="M77.791,28.13l0.635,1.503h-1.27L77.791,28.13z M77.737,27.671l-1.441,3.336h0.279l0.49-1.152h1.453
	l0.489,1.152h0.28l-1.442-3.336H77.737z"/>
<g>
	<defs>
		<rect id="SVGID_7_" y="0" width="119.012" height="31.62"/>
	</defs>
	<clipPath id="SVGID_8_">
		<use xlink:href="#SVGID_7_"  overflow="visible"/>
	</clipPath>
	<path clip-path="url(#SVGID_8_)" fill="#FFFFFF" d="M80.422,29.191h0.203c0.334,0,0.587,0,0.771-0.082
		c0.242-0.106,0.364-0.301,0.364-0.581c0-0.378-0.278-0.606-0.787-0.606h-0.551V29.191z M80.959,27.699
		c0.717,0,1.09,0.305,1.09,0.829c0,0.407-0.207,0.673-0.63,0.81c0.121,0.067,0.219,0.158,0.296,0.276l0.911,1.395h-0.301
		l-0.526-0.813c-0.215-0.325-0.365-0.529-0.451-0.616c-0.132-0.13-0.335-0.16-0.654-0.16h-0.271v1.59h-0.267v-3.31H80.959z"/>
</g>
<polygon fill="#FFFFFF" points="86.216,27.7 84.984,29.225 83.749,27.7 83.475,27.7 83.475,31.008 83.74,31.008 83.74,28.087 
	84.984,29.628 86.226,28.087 86.226,31.008 86.495,31.008 86.495,27.7 "/>
<path fill="#FFFFFF" d="M88.86,28.13l0.635,1.503h-1.27L88.86,28.13z M88.807,27.671l-1.443,3.336h0.281l0.489-1.152h1.453
	l0.489,1.152h0.282l-1.446-3.336H88.807z"/>
<g>
	<defs>
		<rect id="SVGID_9_" y="0" width="119.012" height="31.62"/>
	</defs>
	<clipPath id="SVGID_10_">
		<use xlink:href="#SVGID_9_"  overflow="visible"/>
	</clipPath>
	<path clip-path="url(#SVGID_10_)" fill="#FFFFFF" d="M92.729,31.066c-0.384,0-0.728-0.102-1.022-0.296
		c-0.484-0.313-0.765-0.843-0.765-1.429c0-0.444,0.184-0.88,0.508-1.197c0.339-0.329,0.78-0.504,1.279-0.504
		c0.371,0,0.756,0.108,1.156,0.312v0.275c-0.425-0.228-0.803-0.349-1.167-0.349c-0.314,0-0.596,0.088-0.838,0.247
		c-0.411,0.275-0.648,0.722-0.648,1.227c0,0.393,0.155,0.77,0.422,1.046c0.266,0.276,0.644,0.432,1.064,0.432
		c0.359,0,0.737-0.122,1.167-0.351v0.283C93.494,30.964,93.111,31.066,92.729,31.066"/>
</g>
<polygon fill="#FFFFFF" points="95.029,27.7 95.029,31.008 96.86,31.008 96.86,30.785 95.295,30.785 95.295,29.439 96.773,29.439 
	96.773,29.225 95.295,29.225 95.295,27.913 96.821,27.913 96.821,27.7 "/>
<g>
	<defs>
		<rect id="SVGID_11_" y="0" width="119.012" height="31.62"/>
	</defs>
	<clipPath id="SVGID_12_">
		<use xlink:href="#SVGID_11_"  overflow="visible"/>
	</clipPath>
	<path clip-path="url(#SVGID_12_)" fill="#FFFFFF" d="M99.359,30.794c0.653,0,1.095-0.436,1.095-1.158v-1.938h0.275v1.924
		c0,0.901-0.541,1.448-1.37,1.448c-0.828,0-1.365-0.547-1.365-1.448v-1.924h0.271v1.938C98.266,30.359,98.706,30.794,99.359,30.794"
		/>
</g>
<polygon fill="#FFFFFF" points="101.728,27.7 101.728,27.937 102.96,27.937 102.96,31.008 103.244,31.008 103.244,27.937 
	104.476,27.937 104.476,27.7 "/>
<rect x="105.516" y="27.7" fill="#FFFFFF" width="0.268" height="3.308"/>
<g>
	<defs>
		<rect id="SVGID_13_" y="0" width="119.012" height="31.62"/>
	</defs>
	<clipPath id="SVGID_14_">
		<use xlink:href="#SVGID_13_"  overflow="visible"/>
	</clipPath>
	<path clip-path="url(#SVGID_14_)" fill="#FFFFFF" d="M108.796,31.066c-0.383,0-0.727-0.102-1.021-0.296
		c-0.486-0.313-0.768-0.843-0.768-1.429c0-0.444,0.186-0.88,0.509-1.197c0.341-0.329,0.781-0.504,1.279-0.504
		c0.374,0,0.757,0.108,1.158,0.312v0.275c-0.427-0.228-0.804-0.349-1.167-0.349c-0.316,0-0.596,0.088-0.838,0.247
		c-0.412,0.275-0.649,0.722-0.649,1.227c0,0.393,0.154,0.77,0.421,1.046c0.268,0.276,0.645,0.432,1.066,0.432
		c0.357,0,0.735-0.122,1.167-0.351v0.283C109.561,30.964,109.178,31.066,108.796,31.066"/>
</g>
<path fill="#FFFFFF" d="M112.08,28.13l0.636,1.503h-1.27L112.08,28.13z M112.027,27.671l-1.443,3.336h0.28l0.49-1.152h1.452
	l0.489,1.152h0.282l-1.444-3.336H112.027z"/>
<polygon fill="#FFFFFF" points="114.459,27.7 114.459,31.008 116.294,31.008 116.294,30.785 114.734,30.785 114.734,27.7 "/>
<g>
	<defs>
		<rect id="SVGID_15_" y="0" width="119.012" height="31.62"/>
	</defs>
	<clipPath id="SVGID_16_">
		<use xlink:href="#SVGID_15_"  overflow="visible"/>
	</clipPath>
	<path clip-path="url(#SVGID_16_)" fill="#FFFFFF" d="M118.14,27.898c-0.411,0-0.682,0.275-0.682,0.62
		c0,0.358,0.228,0.484,0.654,0.664c0.271,0.111,0.514,0.198,0.682,0.388c0.141,0.155,0.218,0.359,0.218,0.581
		c0,0.522-0.401,0.906-0.979,0.906c-0.284,0-0.567-0.098-0.851-0.297v-0.318c0.305,0.238,0.58,0.357,0.848,0.357
		c0.43,0,0.701-0.252,0.701-0.658c0-0.388-0.262-0.515-0.718-0.702c-0.537-0.224-0.823-0.432-0.823-0.906
		c0-0.499,0.373-0.877,0.961-0.877c0.26,0,0.503,0.073,0.75,0.218v0.296C118.635,27.991,118.393,27.898,118.14,27.898"/>
	<path clip-path="url(#SVGID_16_)" fill="#FFFFFF" d="M111.701,11.813v0.659h0.353c0.374,0,0.535-0.07,0.535-0.34
		c0-0.224-0.177-0.319-0.535-0.319H111.701z M112.835,12.14c0,0.245-0.164,0.431-0.427,0.461l0.401,0.828h-0.277l-0.383-0.793
		h-0.448v0.793h-0.241v-1.78h0.643C112.592,11.649,112.835,11.795,112.835,12.14 M113.04,11.584
		c-0.266-0.266-0.612-0.408-0.986-0.408s-0.715,0.142-0.968,0.399c-0.267,0.273-0.414,0.622-0.414,0.987
		c0,0.366,0.147,0.71,0.41,0.974c0.262,0.263,0.606,0.409,0.972,0.409c0.362,0,0.717-0.146,0.986-0.413
		c0.259-0.254,0.401-0.59,0.401-0.97C113.441,12.188,113.299,11.843,113.04,11.584 M113.149,11.476
		c0.288,0.29,0.442,0.674,0.442,1.086c0,0.423-0.154,0.793-0.442,1.077c-0.303,0.298-0.689,0.46-1.096,0.46
		c-0.408,0-0.788-0.162-1.08-0.455c-0.294-0.293-0.453-0.672-0.453-1.082c0-0.405,0.159-0.792,0.458-1.094
		c0.283-0.288,0.658-0.444,1.075-0.444C112.472,11.024,112.855,11.184,113.149,11.476"/>
</g>
</svg>
