<?xml version="1.0" encoding="utf-8"?>
<!-- Generator: Adobe Illustrator 16.0.0, SVG Export Plug-In . SVG Version: 6.00 Build 0)  -->
<!DOCTYPE svg PUBLIC "-//W3C//DTD SVG 1.1//EN" "http://www.w3.org/Graphics/SVG/1.1/DTD/svg11.dtd">
<svg version="1.1" id="Layer_1" xmlns="http://www.w3.org/2000/svg" xmlns:xlink="http://www.w3.org/1999/xlink" x="0px" y="0px"
	 width="111.291px" height="205.807px" viewBox="0 0 111.291 205.807" enable-background="new 0 0 111.291 205.807"
	 xml:space="preserve">
<g>
	<defs>
		<rect id="SVGID_1_" width="111.291" height="205.807"/>
	</defs>
	<clipPath id="SVGID_2_">
		<use xlink:href="#SVGID_1_"  overflow="visible"/>
	</clipPath>
	<path clip-path="url(#SVGID_2_)" fill-rule="evenodd" clip-rule="evenodd" fill="#B3D235" d="M89.683,194.181l2.029,11.626
		c-11.213-8.011-21.508-17.287-30.078-27.863C-35.444,148.212,3.618,72.035,34.694,16.472
		C31.134,92.205,144.862,72.94,79.721,175.54c-36.227-29.871-43.658-68.848-50.748-113.12
		C28.973,62.42,24.912,154.504,89.683,194.181"/>
	<path clip-path="url(#SVGID_2_)" fill-rule="evenodd" clip-rule="evenodd" fill="#B3D235" d="M78.708,77.147
		c-2.865-15.28-3.623-31.977-4.476-53.158c0,0-5.393,23.547-3.571,46.689c-3.268-2.623-6.479-5.249-9.481-7.969
		c-3.522-3.192-6.853-6.572-9.77-10.275C58.689,23.063,76.273,2.887,82.904,0c-9.447,35.767,54.016,52.595,16.299,99.099
		l-0.289-0.486C93.866,90.259,86.465,83.506,78.708,77.147"/>
</g>
</svg>
